<?xml version="1.0" encoding="utf-8"?>
<!-- Generator: Adobe Illustrator 16.0.0, SVG Export Plug-In . SVG Version: 6.00 Build 0)  -->
<!DOCTYPE svg PUBLIC "-//W3C//DTD SVG 1.1//EN" "http://www.w3.org/Graphics/SVG/1.1/DTD/svg11.dtd">
<svg version="1.1"
	 id="svg2" inkscape:version="0.91 r13725" sodipodi:docname="logo-name.svg" inkscape:export-xdpi="90" inkscape:export-ydpi="90" xmlns:dc="http://purl.org/dc/elements/1.1/" xmlns:cc="http://creativecommons.org/ns#" xmlns:rdf="http://www.w3.org/1999/02/22-rdf-syntax-ns#" xmlns:svg="http://www.w3.org/2000/svg" xmlns:sodipodi="http://sodipodi.sourceforge.net/DTD/sodipodi-0.dtd" xmlns:inkscape="http://www.inkscape.org/namespaces/inkscape" inkscape:export-filename="/home/david/projects/code/pm/webapp/src/assets/images/logo.png"
	 xmlns="http://www.w3.org/2000/svg" xmlns:xlink="http://www.w3.org/1999/xlink" x="0px" y="0px" width="753px" height="200.801px"
	 viewBox="0 0 753 200.801" enable-background="new 0 0 753 200.801" xml:space="preserve">
<sodipodi:namedview  id="base" inkscape:pageopacity="0.0" inkscape:pageshadow="2" inkscape:document-units="px" inkscape:current-layer="flowRoot4231-3" inkscape:window-width="1920" inkscape:window-height="1016" inkscape:window-x="0" inkscape:window-y="27" fit-margin-right="0" fit-margin-bottom="0" fit-margin-top="0" fit-margin-left="0" pagecolor="#ffffff" showgrid="false" bordercolor="#666666" borderopacity="1.0" inkscape:zoom="1.52" inkscape:cx="270.73849" inkscape:cy="16.788376" inkscape:window-maximized="1">
	</sodipodi:namedview>
<g id="layer1" transform="translate(-264.032,-484.50093)" sodipodi:insensitive="true" inkscape:groupmode="layer" inkscape:label="background" display="none">
	
		<rect id="rect5771" x="144.418" y="394.983" display="inline" fill="#21CE99" stroke="#303D93" stroke-width="0.3264" width="459.979" height="219.019"/>
</g>
<g id="g6066" transform="translate(-50.635308,-1.3265037e-5)" inkscape:groupmode="layer" inkscape:label="pizza" display="none">
	<g id="g6068" transform="matrix(-19.494478,0,0,19.494478,59.035303,-1.0011014)" display="inline">
		<path id="path6087" inkscape:connector-curvature="0" fill="#552200" d="M1.237,0.01c0.008,0,0.016,0.001,0.023,0.005
			C1.611,0.16,1.933,0.373,2.206,0.646c0.262,0.262,0.478,0.58,0.63,0.945c0.013,0.03-0.002,0.065-0.032,0.078L1.859,2.06v0.526
			c0,0.098-0.08,0.178-0.178,0.178c-0.098,0-0.178-0.08-0.178-0.178V2.207l-0.31,0.129v0.25c0,0.098-0.08,0.178-0.178,0.178
			c-0.098,0-0.178-0.08-0.178-0.178V2.483L0.168,2.76c-0.03,0.013-0.065-0.002-0.077-0.032c-0.006-0.015-0.006-0.031,0-0.045
			l1.091-2.636C1.192,0.024,1.214,0.01,1.237,0.01z"/>
		<path id="path6085" inkscape:connector-curvature="0" fill="#AA4400" d="M1.269,0.148L1.096,0.565
			c0.262,0.116,0.502,0.279,0.706,0.484C2,1.247,2.165,1.484,2.285,1.755l0.418-0.174C2.56,1.255,2.361,0.969,2.122,0.73
			C1.874,0.482,1.584,0.286,1.269,0.148z"/>
		<path id="path6083" inkscape:connector-curvature="0" fill="#FFFF00" d="M1.05,0.675L0.961,0.891
			c0.027,0.002,0.054,0.01,0.078,0.021C1.097,0.938,1.145,0.986,1.172,1.05c0.027,0.066,0.026,0.136,0,0.197
			c-0.025,0.061-0.074,0.113-0.14,0.14c-0.063,0.026-0.131,0.026-0.19,0.002c-0.026-0.01-0.05-0.023-0.07-0.041L0.255,2.596
			l0.614-0.254c0.008-0.004,0.017-0.006,0.027-0.006c0.033,0,0.059,0.026,0.059,0.059v0.192c0,0.033,0.026,0.059,0.059,0.059
			c0.033,0,0.06-0.026,0.06-0.059v-0.29c0-0.03,0.016-0.045,0.037-0.054l0.424-0.176c0.008-0.004,0.018-0.006,0.027-0.006
			c0.033,0,0.059,0.026,0.059,0.059v0.468c0,0.033,0.027,0.059,0.059,0.059c0.033,0,0.06-0.026,0.06-0.059V2.02
			c0-0.032,0.015-0.045,0.037-0.054L2.176,1.8c-0.114-0.255-0.27-0.478-0.458-0.666C1.524,0.939,1.297,0.785,1.05,0.675L1.05,0.675z
			"/>
		<path id="path6081" inkscape:connector-curvature="0" fill="#DD3673" d="M0.995,0.895c-0.014,0-0.028,0.002-0.042,0.004
			L0.766,1.348c0.034,0.046,0.079,0.08,0.131,0.1c0.066,0.025,0.141,0.026,0.211-0.003c0.074-0.03,0.126-0.087,0.154-0.154
			c0.03-0.069,0.031-0.147,0-0.22C1.235,1,1.181,0.948,1.115,0.918C1.078,0.902,1.037,0.894,0.995,0.895L0.995,0.895z"/>
		<path id="path6079" inkscape:connector-curvature="0" fill="#DD3673" d="M1.615,1.39c0.093,0.001,0.18,0.056,0.218,0.147
			c0.026,0.061,0.023,0.126,0,0.182c-0.05,0.121-0.189,0.179-0.31,0.129c-0.121-0.05-0.179-0.19-0.129-0.31
			c0.023-0.057,0.068-0.104,0.129-0.129C1.553,1.396,1.584,1.39,1.615,1.39z"/>
		<path id="path6077" inkscape:connector-curvature="0" fill="#DD3673" d="M1.614,1.509c-0.015,0-0.031,0.003-0.046,0.009
			C1.538,1.53,1.516,1.553,1.504,1.583c-0.026,0.06,0.004,0.13,0.064,0.155c0.061,0.025,0.13-0.004,0.155-0.065
			c0.012-0.03,0.012-0.062,0-0.09C1.704,1.537,1.661,1.51,1.614,1.509z"/>
		<path id="path6075" inkscape:connector-curvature="0" fill="#DD3673" d="M0.905,1.779c0.028-0.002,0.057,0.002,0.086,0.014
			c0.096,0.04,0.142,0.15,0.102,0.246C1.074,2.085,1.039,2.122,0.991,2.142c-0.048,0.02-0.1,0.018-0.145,0
			C0.802,2.124,0.765,2.088,0.745,2.04C0.692,1.914,0.786,1.788,0.905,1.779z"/>
		<path id="path6070" inkscape:connector-curvature="0" fill="#DD3673" d="M0.924,1.898c-0.049-0.004-0.091,0.047-0.07,0.097
			c0.007,0.018,0.021,0.03,0.038,0.038c0.018,0.007,0.036,0.007,0.054,0c0.017-0.007,0.03-0.02,0.038-0.038
			c0.015-0.036-0.002-0.077-0.038-0.091C0.938,1.9,0.931,1.898,0.924,1.898z"/>
	</g>
</g>
<g id="g4164" transform="translate(-264.032,-484.50093)" sodipodi:insensitive="true" inkscape:groupmode="layer" inkscape:label="text" display="none">
	
		<g id="flowRoot4166" transform="matrix(0.53110515,0,0,0.53110515,-73.119717,-271.41297)" inkscape:export-xdpi="90" inkscape:export-ydpi="90" display="inline">
	</g>
	<g id="flowRoot4231" transform="matrix(1.8921108,0,0,1.8921108,-306.84309,-81.236919)" display="inline">
	</g>
</g>
<g enable-background="new    ">
	<path fill="#693A93" stroke="#000000" stroke-width="0.5" stroke-miterlimit="10" d="M20.883,198.92l-1.649,1.168l-0.938-2.01
		c0-0.166,0-0.166,0-0.166h-0.118c-0.117,0.166-0.235,0.336-0.354,0.336c0,0-1.176,0.838-2.468,0.502
		c-0.354-1.68-1.059-2.852-1.059-2.852l-1.412-0.336c0,0-1.056-0.671-2.587-0.835c-0.703-1.343-0.235-3.188-0.235-3.188
		c-0.938-1.176-1.645-2.684-2.35-3.861c-0.706-1.342-1.174-2.514-1.879-2.85c0,0-1.884-0.672-1.998-1.173
		c0-0.506,0.467-3.021,0.467-3.021c-0.118-0.166-0.236-0.166-0.467-0.336c0,0-1.06-0.336-1.294-0.836
		c-0.354-0.506-0.472-2.185-0.472-2.185c0-1.177-0.354-2.851-0.824-4.528c-0.703-2.516-1.88-6.033-0.821-10.065
		c-0.823-10.396,2.823-19.788,6.23-25.825l0.704-1.669l0.706,0.155c0.588-1.002,1.177-1.674,1.762-2.344
		c0.235-0.17,0.472-0.506,0.59-0.672c0,0,1.06-1.172,1.647-1.332c0.703-0.511,1.056,0.666,1.056,0.666
		c2.817-2.854,5.522-5.369,8.462-7.719c1.528-1.173,2.705-2.18,4.114-3.352h0.118v-0.17c1.178-0.672,2.234-0.838,2.94-0.838
		c0.353,0,0.588,0,0.822,0c0.236,0,0.354,0,0.472,0c0.234,0,0.586,0,0.703-0.17h0.117l0.117-0.164
		c1.294-0.672,1.647-3.354,1.766-6.877l-1.53-1.678l0.824-2.348c0.234-0.84,0.353-2.012,0.353-3.357v-1.34l1.173-1.676l1.884-1.509
		h0.354c2.939,0,5.055,2.354,6.46,4.361c0.589,0.508,1.178,1.008,1.765,1.51l1.293,1.004l-0.117,2.016
		c-0.117,1.336,0.354,3.188,0.823,4.691c0.472,2.182,0.941,4.356,0.941,6.711c0,2.515-0.706,4.865-2.234,6.877
		c-1.293,3.357-3.291,5.367-5.171,7.381c-1.293,1.172-2.468,2.186-3.292,3.361l-0.468,0.832l-0.589,0.336
		c-9.873,2.688-17.279,10.229-20.452,20.635c-1.531,6.373,1.291,12.74,3.994,18.275c0.117,0,0.117,0,0.235,0
		c9.287,0,17.868-9.895,20.688-23.149c0.236-0.837-1.174-1.173-1.762-3.187c-0.117-2.521,1.88-3.691,1.88-3.691
		c0.118,0,0.235-0.672,0.352-1.172c0.354-1.006,0.707-2.18,1.413-3.522c0,0,0.821-1.172,1.645-1.007
		c0.707,0,1.531,1.007,1.531,1.007c1.292,1.509,3.174,1.845,4.936,2.015l1.998,0.166l0.588,1.168c0,0,0.589,1.683,1.879,1.006
		c0.236,1.845-0.702,3.361-0.702,3.361s0.118,0.166,0.235,0.332l1.292,1.842l-0.942,1.85c-0.118,0.496-0.35,0.833-0.467,1.002
		l1.174,0.502l-0.235,2.852c-0.118,1.678-0.472,2.85-0.82,4.197c-0.471,1.838-0.588,3.021-0.588,4.018l0.471,2.189l-1.177,1.172
		c-0.471,0.336-0.824,0.672-1.295,1.006c-0.351,3.188-1.998,5.867-3.878,6.875c-1.646,5.034-4.348,8.557-7.286,10.569l0.234,1.845
		l-1.409,1.172c-2.355,1.844-4.586,2.689-7.053,3.186c-2.352,0.837-4.702,1.509-6.467,3.527c0,0-0.938,1.502-2.232,1.168
		c-0.235-2.006-1.177-2.181-1.177-2.181C21.585,198.584,21.236,198.75,20.883,198.92z M34.87,94.092h-2.231l-0.117-3.186
		c0-0.168,0-0.335,0-0.671c-0.117-2.348-0.235-4.027-1.059-5.033l-1.409-2.007l1.055-2.183c0.354-0.502,0.589-1.173,0.942-1.845
		c1.88-4.359,3.762-8.884,7.404-11.574l1.53-1.004l0.941,1.676c0,0,0.118,0,0.118,0.166c0.468-0.166,0.938-0.333,1.526-0.333
		c1.998,0,3.764,1.509,5.056,3.857c1.177,1.677,2.001,4.362,2.117,7.212c0.352,5.034-1.411,9.394-4.352,10.569
		c-1.294,2.521-3.762,7.047-7.404,7.214h-1.529l-0.707-1.672C36.397,94.261,35.342,94.092,34.87,94.092z"/>
	<path fill="#693A93" stroke="#000000" stroke-width="0.5" stroke-miterlimit="10" d="M127.975,138.034
		c0-2.352-0.235-4.359-0.354-6.543c-0.938-2.855-1.292-6.041-1.526-8.557c-0.235-2.51-0.471-4.689-1.061-6.198
		c-2.702,0.663-5.171,2.005-7.758,3.187c-4.468,2.179-8.935,4.363-13.633,5.365c-0.235,0.162-0.471,0.498-0.942,1.344l-0.706,1.338
		h-1.292c-0.116,0-0.234,0-0.353,0c-3.292,0-6.58,1.838-8.578,4.863c0,0,0.584,1.008,0.467,1.504
		c-0.117,0.51-1.645,1.678-1.645,1.678c-0.706,0.837-1.412,1.508-1.998,2.179c-0.941,2.354-1.765,4.87-2.705,7.882
		c-2.118,6.381-4.351,13.59-9.755,16.947c0,0-1.295,0.5-2.233,0.165c-0.589-0.336-1.06-2.687-1.06-2.687
		c-0.117-1.506-0.705-2.685-1.409-4.022c-0.705-2.013-1.409-4.192-1.764-6.718c0,0-0.118-1.502,0.117-2.18
		c0.354-0.67,1.06-1.172,1.06-1.172c0.118-0.17,0.235-0.496,0.235-0.832c0.353-0.841,0.702-1.848,1.409-2.689
		c0-0.506-0.117-1.008,0-1.504c0-1.346,0.588-2.688,1.409-3.525l0.585-0.506c0.354-3.016,1.296-5.866,2.824-8.217
		c0.587-2.01,1.646-3.691,2.94-4.694c-0.118-3.021,0.819-5.706,1.644-7.715c0.471-1.677,0.941-3.356,0.824-4.863l-0.118-2.008
		l1.29-0.843c0.586-0.336,1.059-0.674,1.176-1.172l0.706-1.844h2.233c0.353-1.506,1.173-2.687,1.88-3.521v-0.168v-0.168
		c0,0-1.056-1.844-0.938-2.517c0.231-1.171,1.527-2.012,1.527-2.012c0.471-0.501,0.705-0.837,0.823-1.173l1.527-4.861l0.352,0.336
		l1.532-1.006c0.234-2.851,1.409-5.704,3.288-7.046v-0.167l0.117-0.838v-1.34l1.766-3.188c0.47-2.182,1.173-5.366,3.41-7.047
		l0.938-0.666l0.118-1.343l1.648-0.336l0.471-3.019l1.409-0.336c0.117-1.344,0.234-2.684,0.706-4.194l0.47-1.007l0.938-0.498
		c3.175-1.344,6.231-5.033,7.994-9.563l0.702-2.008l1.178,0.167l0.118-2.185l0.942-0.501c1.055-0.669,1.997-1.005,3.173-1.005
		c3.76,0,7.053,3.691,8.935,5.7c0,0,1.056,1.509,1.174,2.014c0.117,0.335-0.823,2.18-0.823,2.18
		c-0.118,0.504-0.118,1.341-0.118,2.181c0,1.009,0,2.013-0.232,3.026c1.174,5.025,1.526,10.059,1.881,15.26
		c0.353,5.201,0.706,10.229,2.35,14.93c0.825-0.336,1.531-0.336,1.999-0.504l1.646-0.167l0.707,2.186
		c0.117,0.503,0.821,0.67,1.292,0.67c0,0,1.884,0.332,2.351,0.332c0.353,0.839-0.235,2.521-0.235,2.521s0.588,0.167,0.942,0.671
		c-0.118,1.001,0.117,2.515,0.117,2.515c0.117,4.861-2.232,7.38-4.115,9.223c-1.057,1.009-1.998,1.681-2.352,2.688v0.162
		c-0.938,3.358,0.117,7.549,1.529,10.901l0.471,1.177l-0.234,1.172c-0.354,2.351,0.117,5.195,0.586,8.217
		c0.588,3.195,1.176,7.043,0.588,10.74c0,1.168,0.117,2.35,0.235,3.684c0.354,4.193,0.94,10.57-2.938,14.428
		c0,0-0.118,1.008-0.938,1.508c0-1.172-0.707-0.671-0.707-0.671l-0.588,1.849l-0.941-0.672c-0.118,0-0.235,0-0.354,0
		c0,0-1.173,0.336-1.408,2.18c-1.412,0-2.704-2.686-2.704-2.686C129.27,154.469,128.681,146.084,127.975,138.034z M102.938,103.82
		c-0.353,0.671-0.588,1.343-0.707,2.017c0.707-0.336,1.413-0.672,1.999-1.008c4.939-2.521,9.992-4.869,15.517-4.869
		c0.472,0,0.824,0,1.295,0.167c1.173-1.672,2.585-2.517,3.993-2.683c-0.116-3.523-0.819-6.542-1.525-10.063
		c-0.824-3.689-1.53-7.884-1.53-12.077l-0.588-0.67l-0.35-2.349l-0.117,0.333l-1.061,2.012l-1.88,2.01h-1.177
		c-3.174,5.029-6.113,10.737-8.817,16.27c-1.409,2.854-2.938,5.704-4.111,8.222C103.527,102.145,103.173,102.985,102.938,103.82z
		 M124.566,33.207c-3.174-2.35-6.229-5.868-8.107-10.397c-2.115-4.696-3.058-9.893-2.587-15.433l0.117-1.004l0.589-0.67
		c0.707-1.006,1.526-1.678,2.115-2.186c0.588-0.667,1.176-1.004,1.412-1.506l0.468-1.174l0.823-0.336
		c0.589-0.336,1.295-0.503,1.884-0.503c0.468,0,0.82,0.167,1.057,0.167l1.295,0.336l0.353,1.174l1.292-0.166
		c0.235,0,0.472,0,0.707,0c1.762,0,3.88,0.837,4.818,3.522c0.354,0.67,0.59,1.673,0.472,2.685l0.589,0.167l0.588,0.669
		c2.233,3.021,1.763,6.878,1.292,10.569c-0.117,0.671-0.117,1.174-0.117,1.672c0.117,1.512,0.823,3.529,1.882,5.371l1.057,1.678
		l-0.703,2.008c-0.118,0.168-0.118,0.336-0.234,0.336c-0.589,1.673-1.53,4.696-3.763,5.532h-0.118h-0.234c-0.235,0-0.354,0-0.589,0
		C128.21,35.723,126.095,34.386,124.566,33.207z"/>
	<path fill="#693A93" stroke="#000000" stroke-width="0.5" stroke-miterlimit="10" d="M187.236,159.674
		c-0.353-0.5-0.706-1.506-1.057-1.844c0,0-0.823-1.006-0.94-1.843c-0.118-0.837,0.236-2.351,0.236-2.351
		c1.997-5.535,3.994-11.075,6.113-16.602c3.995-10.57,7.992-21.806,11.399-33.381l0.354-0.667l0.467-0.503
		c0.235-0.336,0.589-0.672,0.707-1.007c0.235-0.337,0.471-0.67,0.706-1.005c1.177-7.549,3.646-14.087,5.878-20.967
		c1.413-3.857,2.938-8.051,4.117-12.077c0.349-1.001,0.467-2.182,0.584-3.523c0.234-1.17,0.354-2.684,0.589-4.19
		c0.941-3.692,2.351-6.546,3.763-9.729c1.407-3.188,2.586-6.036,3.292-9.39l0.354-1.677c0.819-0.836,1.645-0.5,1.645-0.5
		l0.117-0.336l1.53-1.677l3.289-2.853l0.706,0.672l0.941,0.336c3.058,0.665,5.644,2.854,7.052,6.375
		c2.236,5.532,1.884,12.578,0.707,17.443c0.117,0.334,0.235,0.503,0.235,0.503l1.061,1.174l-0.118,2.009
		c-1.294,13.248-1.53,26.333-0.589,39.248c3.646-6.206,6.349-13.753,9.171-20.967c0.589-1.341,1.06-3.021,1.644-4.53
		c0.471-1.341,0.707-2.853,1.061-4.53c0.353-1.84,0.705-4.189,1.645-6.375c0.824-2.008,1.882-3.689,2.589-5.363
		c1.407-2.689,2.7-5.034,3.643-7.717c0.823-2.683,1.764-5.032,3.41-6.878l0.705-0.838l0.942,0.167
		c0.467,0.168,0.938,0.168,1.409,0.168c1.294,0.167,3.057,0.335,4.818,1.672l0.472,0.504l0.235,0.503
		c1.528,4.362,1.646,7.38,1.765,9.726c0,0.335,0,0.503,0,0.671v0.168v0.167c0,0.168,0.234,0.671,0.354,1.006
		c0.468,1.008,1.174,2.686,1.058,4.529c0,0.834-0.118,1.505-0.118,2.181c0,2.35-0.117,4.698-0.354,6.711
		c-0.118,1.005,0.117,2.518,0.235,3.859c0.353,2.516,0.824,5.53-0.235,8.723c0.706,3.019-0.118,6.375-0.938,9.052
		c-0.824,3.188-0.942,4.195-0.235,5.201c0,0,0.82,1.507,0.939,2.007c0,0.674-0.822,2.185-0.822,2.185
		c-0.118,0.168-0.235,0.336-0.354,0.671c0.118,0.332,0.235,0.84,0.235,1.339l0.354,1.177l-0.118,3.524
		c0,1.503-0.235,2.851-0.588,4.522c-0.472,3.022-0.589,4.36-0.235,4.863c0,0,1.177,1.176,1.177,2.008
		c-1.06,1.176-1.764,4.027-1.764,4.027l0.704,1.344c0,0,0,0.164,0,0.334c0,0.336,0.118,0.672,0.118,1.002l-0.235,2.35
		c0,0,0.471,0.843,0.471,2.186c0,1.178-0.823,2.85-0.823,2.85l0.117,0.672l-0.705,1.338c0.587,1.678,0.587,3.525,0.705,4.869
		c0,0.832,0,1.502,0,2.009c0,0,0.941,3.017,0.588,3.688c-0.353,0.676-1.293,0.842-1.293,0.842c0.116,0.168,0.116,0.334,0.116,0.505
		c0.119,0.497,0.237,0.831,0.237,1.333c0,0,0.351,2.855,0.116,3.697c-1.06-0.506-1.763,0.496-1.763,0.496
		c-0.117,1.176-0.47,2.52-1.411,3.696l-0.236,0.337l-0.235,0.16c0,0-0.353,2.354-0.819,2.855c-0.235,0.666-2.001-0.336-2.001-0.336
		c-0.235-0.164-0.588-0.164-0.938-0.164c-0.942,0-2,0.5-3.058,0.836c-0.823,0.504-1.883,0.841-3.057,1.007
		c0,0-1.059,0.17-1.413-0.166c-0.353-0.175-0.823-1.343-0.823-1.343c-1.764-4.193-0.702-9.057,0-12.58
		c1.059-4.694,1.294-6.377-0.351-8.223l-0.707-1.17l0.118-1.68c0.237-6.873,1.175-13.416,2.233-19.793
		c0.824-5.693,1.762-11.234,2.232-16.6c-0.118-0.504-0.234-1.006-0.353-1.174c0,0-0.585-1.337-1.174-1.672
		c0.117-1.008,0.354-2.012,0.354-2.012c0.354-1.842,0.82-3.691,1.173-5.869c-0.707,0.838-1.409,1.338-1.998,1.841
		c-0.118,0-0.235,0.168-0.471,0.336c-1.177,8.054-4.345,14.255-7.522,20.302c-1.647,3.344-3.293,6.195-4.586,9.381
		c-0.353,1.678-0.706,3.188-0.938,4.869c-0.706,4.019-1.53,8.381-3.527,12.24l-0.234,0.334l-0.354,0.336
		c-1.53,1.512-2.586,3.021-3.527,4.527c0,0-0.94,1.168-1.41,1.344c-0.472,0-1.529-0.672-1.529-0.672
		c-1.06-1.007-1.527-2.354-1.879-3.361c0,0-0.707,0.336-1.178,0.174c-0.117-0.5-0.705-2.354-0.705-2.354
		c-3.407-12.744-3.407-26.332-3.407-39.412v-1.005c-0.472-5.699-0.822-11.739-0.94-17.273l-0.941,3.019l-1.174,1.007
		c-0.354,1.006-0.234,0.336-0.589,1.509c-1.765,6.711-3.763,13.08-5.291,19.625l-0.234,0.836l-0.352,0.672
		c-0.354,0.336-0.589,1.338-0.824,2.009c-0.472,1.178-0.706,2.683-1.409,4.028c-0.235,5.859-2.819,10.733-4.939,14.586
		c-1.644,3.357-3.292,6.203-3.76,9.725l-0.236,1.346l-0.706,0.668c-0.706,0.672-1.177,1.342-1.765,1.844
		c-0.35,1.006-0.703,2.184-0.938,3.186c-0.589,1.844-1.059,3.521-1.176,5.029l-0.234,1.344l-0.939,0.832
		c-1.882,1.684-3.292,4.869-4.822,7.721c-0.118,0.334-0.354,0.84-0.589,1.176l-0.349,0.836l-0.589,0.332
		c-0.707,0.5-1.294,0.842-2.118,0.842C189.469,164.872,188.06,161.684,187.236,159.674z"/>
	<path fill="#693A93" stroke="#000000" stroke-width="0.5" stroke-miterlimit="10" d="M328.187,159.674
		c-1.061-3.021-1.997-5.364-3.175-7.881l-0.354-0.67l-0.116-0.67c-0.354-3.027-0.116-5.201,0.354-8.056
		c-0.354,0.165-0.708,0.335-1.055,0.501c-8.232,12.58-15.873,19.126-23.274,19.126c-2.938,0-5.526-0.841-8.232-2.851l-0.702-0.67
		l-0.472-2.016c-2.232-8.386-4.703-17.277-4.821-26.326v-0.67l0.235-0.673c1.53-4.864,2.586-9.729,3.764-14.255
		c0.469-2.852,0.939-5.697,1.529-8.049c0,0,0.351-1.172,0.705-1.344c0.353-0.336,1.529-0.672,1.529-0.672
		c0.116-0.33,0.235-0.668,0.235-1.002c0-0.168,0.119-0.168,0.119-0.336c0,0-0.119-1.166-0.825-1.675
		c0.586-1.175,1.409-2.013,1.409-2.013c0.704-0.666,1.529-1.003,2.116-1.338c0-0.334,0.119-0.837,0.236-1.342v-0.503l1.762-3.187
		h0.706c0.235-0.835,0.472-1.504,0.706-2.009c0.704-1.007,1.646-1.845,2.469-2.684c1.175-1.341,1.407-1.678,1.407-2.353
		c0,0-0.118-1.674,0.117-2.515c0.707-1.008,2.466-0.673,2.466-0.673l0.119-0.839l1.647-0.833l0.116-0.168
		c0.94-0.672,1.294-1.008,1.411-1.008c0,0,0.941-2.181,1.648-2.348c1.174,1.338,2.114,1.003,2.114,1.003
		c0.234-0.167,1.291-1.339,1.644-2.517l0.589-1.677h1.532c0.116,0,0.352,0,0.585,0c0.471-0.164,0.941-0.164,1.413-0.164
		c0.231,0,0.703,0,1.174,0.164l0.705-0.164l0.587-0.84h1.177c1.057,0,2.351,0,3.645,0.84c0.941-0.505,2.116-0.84,3.292-0.84
		c3.292,0,6.579,1.842,8.343,4.863c0.824,1.677,1.413,3.354,1.646,4.865c2.354,0.669,3.882,3.521,5.176,5.699
		c0.585,1.006,1.056,1.508,1.526,2.013c0,0,0.823,0.838,0.941,1.505c0.114,0.673-0.238,1.846-0.238,1.846
		c-1.056,4.361-2.229,8.724-3.405,12.577c-1.884,8.053-4.113,16.438-5.412,24.822l0.355,0.502c0-0.502,0.353-1.002,0.472-1.338
		c0,0,1.646-1.506,1.765-3.354c0.818,0,1.175,1.006,1.175,1.006c0.114,0.166,0.232,0.166,0.352,0.336c0,0,1.057-1.007,1.998-1.172
		c1.057,1.172,1.646,6.198,1.646,6.198c1.293,2.689,0.937,5.205,0.708,7.218c-0.119,1.009-0.119,1.843-0.119,2.515l0.119,1.85
		l-1.062,0.826c-1.765,1.348-3.058,4.033-4.232,6.889c-2.469,4.523-5.176,9.891-10.813,10.734h-1.526l-0.706-1.678
		C328.775,161.349,328.54,160.678,328.187,159.674z M302.445,141.56c0.12,0.331,0.238,0.833,0.355,1.168
		c6.813-4.694,11.518-10.06,14.927-15.595c2.821-6.709,7.049-12.582,10.693-16.776c0.471-1.509,0.94-3.187,1.413-4.021
		c0.938-3.19,1.764-6.546,2.587-9.226c-0.941-0.841-1.53-2.009-2.002-2.853c-0.584-1.006-1.057-1.845-1.526-1.845h-0.116v-0.164
		c-0.588-0.168-1.059-0.504-1.53-0.837c-0.119,0-0.352-0.168-0.584-0.168h-0.119h-0.352c-0.234,0-0.354,0-0.473,0
		c-2.468,0-4.817,2.178-6.701,4.69l-1.294,1.677l-1.764-0.333c-2.231,1.845-3.876,4.695-4.583,7.887l-0.235,1.172l-0.823,0.33
		c-4.467,3.691-5.879,11.244-7.288,18.448l-0.231,1.843l-1.648,1.844c-0.116,1.679-0.469,2.521-0.82,4.027
		c-0.352,2.01-0.706,3.352-0.59,4.695C301.27,138.54,301.975,140.217,302.445,141.56z"/>
	<path fill="#693A93" stroke="#000000" stroke-width="0.5" stroke-miterlimit="10" d="M389.557,160.18
		c-0.704,0.162-1.29,0.328-1.879,0.328c-1.413,0-2.827-0.328-4.229-0.834c-0.828-0.166-1.649-0.5-2.592-0.5
		c-0.706,0-1.29,0.166-1.761,0.5l-0.824,0.506l-0.827-0.17c-1.17-0.502-2.936-0.672-4.813-0.672c-2.586,0-5.76,0.506-8.46,1.004
		c-3.173,0.67-6.112,1.341-9.29,1.341c-1.526,0-3.292-0.335-4.819-0.507c0,0-1.53-0.334-1.764-1.166
		c-0.237-0.672,0.352-3.357,0.352-3.357c0.709-2.009,1.062-3.688,1.062-5.033v-1.344l0.59-0.998
		c2.468-3.691,4.347-7.549,6.111-12.078c1.998-3.693,3.878-7.886,5.993-11.242l0.354-0.5l0.471-0.17
		c2.587-1.674,4.347-5.195,6.468-8.383c1.526-2.857,2.935-5.197,5.166-7.549c2.121-5.87,6.231-9.895,9.642-13.581
		c2.469-2.356,4.348-4.698,6.464-7.551c-2.938-0.837-6.578-1.173-10.228-1.173c-3.876,0-7.168,0.336-10.345,0.669h-0.586
		c-0.942,0.168-1.764,0.671-2.7,1.673l-0.709,0.672l-0.585-0.167c-0.238-0.169-0.471-0.169-0.823-0.337
		c-0.941-0.167-1.883-0.335-2.701-0.335c-0.239,0-0.357,0-0.591,0l-1.176,0.168l-0.589-1.673c-1.175-2.85-0.238-5.703,0.233-7.38
		c0.119-0.336,0.237-0.671,0.237-1.008l-0.471-2.008l2.468-3.354l0.705-0.167c0.822,0,1.531,0,2.235-0.168
		c1.646,0,3.41,0,4.705-1.341l0.471-0.504l0.471-0.168c3.053-1.001,6.227-1.504,10.341-1.504c6.35,0,12.343,1.504,18.568,3.018
		c1.294-0.501,2.707-0.67,3.875-0.67c3.765,0,6.465,2.683,7.412,7.213l0.232,1.344l-0.472,1.169
		c-0.703,2.352-1.997,3.858-3.287,5.032c-1.407,1.006-2.12,1.842-2.468,3.187l-0.118,1.341l-0.705,0.504
		c-6.583,5.531-11.99,13.416-17.75,21.63c-2.939,4.027-5.289,7.549-8.343,11.41c0,0.834-0.12,1.84-0.59,2.687l-0.238,0.331
		l-0.347,0.335c-2.474,3.187-5.765,7.216-8.234,12.079c0.357,0,0.472-0.17,0.472-0.336c0,0,0.71-0.672,1.299-1.008
		c0.353-0.166,0.584,0,0.584,0c2.708,0.672,5.646,0.838,8.581,1.008c6.346,0.336,13.047,0.671,18.921,5.701
		c0.471-0.332,1.061-0.668,1.651-0.838c0,0,0.817-0.164,1.169,0c0.356,0.172,0.823,0.998,0.823,0.998
		c0.59,0.848,1.061,1.85,1.293,3.527h0.354l0.59,4.362l-0.357,4.194l-1.526,0.5c-0.941,0.172-2.121,0.672-3.173,1.179
		c-1.53,0.833-3.644,1.839-5.642,1.839C392.494,161.85,390.969,161.178,389.557,160.18z"/>
	<path fill="#693A93" stroke="#000000" stroke-width="0.5" stroke-miterlimit="10" d="M418.837,152.967
		c-1.999-4.534-2.825-8.893-2.354-13.758l-1.17-0.832l0.352-2.358c0.113-0.501,0.113-1.002,0.232-1.673
		c0.238-0.672,0.586-2.35,0.471-2.852c-0.59-0.334-1.055-0.496-1.646-0.67c-2.121-0.337-3.996-1.008-5.408-2.352l-1.294-1.342
		l0.237-2.01c0.586-4.357,2.469-8.216,4.344-11.398c0.238-0.506,0.589-0.844,0.827-1.344l1.057-2.014l1.408,0.836
		c0.114,0.17,0.347,0.17,0.704,0.17c0.113,0,0.351,0,0.584,0c0.356,0,0.59,0,0.94,0c0.472,0,1.528,0,2.707,0.672
		c0.114-0.17,0.233-0.334,0.348-0.334c2.121-7.887,6.23-13.755,10.346-19.458c1.764-2.689,3.647-5.199,5.294-8.052l0.352-0.336
		l0.352-0.336c0.823-0.669,1.641-1.173,2.583-1.676c2.121-1.002,3.06-1.505,3.41-2.851c0,0,0.353-1.843,1.41-2.684
		c1.294-0.84,2.001,0.837,2.001,0.837c0.938-0.502,1.88-0.837,2.701-1.173c0.705-0.337,1.646-0.673,2.117-1.173l0.942-1.172
		l1.17,0.504c0.943,0.332,1.764,0.5,3.176,0.5c0.704,0,1.409-0.167,2.113-0.167c0.824,0,1.65,0,2.236,0
		c2.114,0,5.055,0.336,7.523,2.185l1.056,1.004v1.673c0,0.84,0.469,1.343,1.175,2.518c1.175,1.676,2.587,3.69,2.116,7.716
		c-0.472,10.568-6.23,17.61-11.516,23.819c-0.471,0.836-1.061,1.508-1.649,2.012l-0.586,0.836h-0.822c-0.118,0-0.352,0-0.589,0
		c-0.472,0.17-1.176,0.17-1.527,0.336l-0.356,2.18l-1.406,0.17c-1.533,0.166-2.94,1.844-4.473,3.526
		c-1.531,1.673-3.525,3.858-6.227,4.354c0,0.168,0,0.168,0,0.334c-0.236,0.672-0.586,1.344-0.822,1.844c0,0-0.59,1.844-1.649,1.844
		c-0.35,0.174-2.348-1.172-2.348-1.172l-0.941-0.17c-1.65,1.678-3.88,2.188-5.646,2.52c-2.701,0.672-3.757,1.006-4.229,2.354
		c0.12,0.998,0.12,1.839,0.12,2.516c0,0.164,0,0.334,0,0.672c0.59,1.508,2.233,5.701,9.754,5.701c1.057,0,2.35-0.172,3.759-0.338
		c2.236-0.509,4.59-1.843,7.054-3.359c1.175-0.832,2.468-1.334,3.881-2.004h0.114h0.115c1.647-0.508,2.937-1.008,4.588-1.344
		c0.818-0.335,1.646-0.506,2.583-0.842c0.238-0.331,0.589-0.667,0.827-1.167c0.232-0.671,0.7-1.173,1.29-1.679l1.055-1.172
		l2.587,1.508c0.234-0.166,0.471-0.838,0.941-1.844c0.582-1.006,1.527-2.686,2.936-3.688c0,0,1.646-1.008,2.117-0.506
		c0.59,0.506,0.941,2.186,0.941,2.186c1.409,5.369,1.051,10.734,0.703,15.936l-0.123,1.332l-0.933,0.672
		c-12.813,11.076-27.273,16.941-41.376,17.277h-0.229h-0.238C426.004,162.526,421.419,158.493,418.837,152.967z M435.408,112.04
		c1.289-0.67,2.706-1.513,3.757-2.52c2.235-1.338,4.59-2.688,6.936-3.354c1.883-2.687,4.346-5.535,7.875-6.04
		c1.176-1.672,2.469-3.185,3.764-4.358c1.53-1.339,2.583-2.518,3.29-3.521c-1.06-0.336-2.233-0.336-3.29-0.336
		c-7.871,0-15.046,8.552-21.275,16.936C436.231,110.028,435.761,111.034,435.408,112.04z"/>
	<path fill="#693A93" stroke="#000000" stroke-width="0.5" stroke-miterlimit="10" d="M519.116,165.542
		c-0.821-0.334-1.765-0.5-2.706-0.67c-1.052,0-2.117-0.17-3.286-0.336L513,164.365h-0.113c-2.469-1.167-2.822-4.688-3.054-6.372
		c0-0.336,0-0.671,0-1.008l-0.239-0.832l0.239-0.836c0.352-1.68,0.821-3.361,0.938-4.865l0.118-0.842l0.823-1.172
		c0.117,0,0.117-0.166,0.117-0.166c0.233-1.682,0.469-3.521,0.115-4.863l-0.353-1.012l0.353-1.164
		c2.938-8.893,4.229-19.297,5.645-29.184c0.234-1.84,0.471-3.021,0.699-4.701c0.238-2.006,0.593-4.023,0.942-5.862
		c0.585-2.519,1.174-5.702,0.942-8.222v-0.336l0.112-0.668c1.058-7.38,2.588-15.099,4.586-22.643c-0.232-2.348,0-5.033,0.237-7.211
		l0.114-0.84l0.586-0.672l0.235-0.503l0.121-0.666l0.113-1.845l0.356-2.181l0.231-1.676c0.586-2.518,1.88-6.543,4.705-8.216
		c0,0,0.937-0.504,1.055-0.504c0.474,0.168,1.177,0.834,1.177,0.834c0.114,0,0.351,0.168,0.586,0.335
		c0.821,0.84,2.234,2.186,2.705,4.698c1.288,2.009,1.176,5.032,1.055,7.047c0,0.333,0,0.67,0,1.005
		c-0.117,1.506-0.584,2.687-1.055,3.691l0.113,2.683l-0.354,1.009c-0.23,0.501-0.23,1.504-0.23,2.515
		c-0.118,0.84-0.118,2.008-0.472,3.356l0.702,1.341l-0.583,1.842c-0.591,1.677-0.823,3.69-1.057,6.203
		c-0.354,3.355-0.709,6.715-2.354,10.232c0,0.667,0,1.171,0.115,1.504c0,1.176,0,2.188,0.124,3.021l0.23,1.008l-0.354,1.172
		c-1.291,4.695-1.998,10.396-2.584,15.766c-0.591,3.685-1.056,8.384-1.997,12.246c0.471,3.017-0.704,5.696-1.53,7.044
		c0,2.35-0.354,4.693-0.823,6.542c-0.115,0.336-0.115,0.673-0.232,0.837v0.17l-0.115,0.166c-0.123,0.502-0.238,0.838-0.238,0.838
		l0.711,1.172l-0.124,1.512c-0.232,1.5-0.349,3.017-0.349,4.359c-0.238,2.684-0.471,5.7-1.062,8.385
		c-0.472,2.852-1.646,5.031-2.819,6.539l-0.71,1.006h-0.58c-0.237,0.17-0.471,0.17-0.821,0.17h-0.238h-0.348v-0.01H519.116z"/>
	<path fill="#693A93" stroke="#000000" stroke-width="0.5" stroke-miterlimit="10" d="M546.156,162.189
		c-1.646-2.179-2.469-5.37-2.233-8.22v-0.172v-0.164c1.646-11.072,3.528-22.305,5.057-32.713c2.348-13.58,4.697-28.005,6.227-40.75
		c0,0,0.351-2.685,0.471-3.524c0.822-0.67,2.354,0,2.354,0c0.115,0,0.115-0.166,0.115-0.166c0.353-0.336,0.707-0.672,1.061-1.007
		l0.817-0.838l1.058,0.502c0.236,0.167,0.589,0.335,0.822,0.503c1.765,0.671,4.113,1.678,5.294,5.367l0.473,1.003l-0.359,1.341
		c-1.406,4.53-2.001,9.223-2.469,14.255c0.592-2.179,1.533-4.362,3.287-5.867c1.063-3.858,2.938-6.711,4.946-9.057
		c1.053-1.509,2.111-2.853,2.937-4.362l0.471-0.836l0.586-0.336c1.173-0.336,2.234-0.838,3.408-1.341
		c2.232-1.173,4.587-2.518,7.406-2.686h0.471l0.586,0.505c1.288,1.003,2.821,1.672,4.347,2.348c2.821,1.173,6.231,2.854,8.581,7.213
		l0.354,0.671l0.118,0.672c1.526,14.926,1.998,26.832,1.408,38.066c-0.71,14.258-3.179,26.166-7.285,36.902l-0.476,1.338
		l-2.229,0.84c-0.822,0.17-1.77,0.17-2.471,0.17h-0.117c-2.354-0.17-3.172-2.35-3.759-3.861c-0.121-0.165-0.354-0.5-0.471-0.671
		c0,0-0.94-1.503-1.997-1.674c-0.123-0.835,0.114-2.009,0.114-2.009c0.586-2.854,1.057-5.535,1.533-8.051
		c2.229-12.58,4.465-24.152,3.876-36.734c-0.239-3.52-1.295-7.207-2.353-10.901c-0.589-1.341-1.412-3.019-2.59-3.69
		c-1.526,0-3.051,1.176-4.229,3.021c-1.409,2.349-2.584,5.031-3.879,8.051c-0.817,2.35-1.997,5.196-3.524,8.049
		c-2.587,4.357-4.589,9.894-6.934,14.762c-0.232,0.672-0.473,1.344-0.824,1.844l-0.471,1.008l-0.699,0.165
		c-0.118,0.171-0.236,0.171-0.236,0.171c-1.998,4.521-3.054,9.389-4.229,14.588c-1.063,5.701-2.471,11.738-5.059,16.938
		l-0.235,0.506l-0.349,0.336c-1.061,1.167-2.234,1.839-3.647,1.839C549.325,165.542,547.685,164.204,546.156,162.189z"/>
	<path fill="#693A93" stroke="#000000" stroke-width="0.5" stroke-miterlimit="10" d="M617.99,162.189
		c-1.65-2.179-2.476-5.37-2.235-8.22v-0.172v-0.164c1.642-11.072,3.523-22.305,5.052-32.713c2.354-13.58,4.703-28.005,6.229-40.75
		c0,0,0.354-2.685,0.466-3.524c0.829-0.67,2.354,0,2.354,0c0.115,0,0.115-0.166,0.115-0.166c0.355-0.336,0.709-0.672,1.062-1.007
		l0.822-0.838l1.052,0.502c0.236,0.167,0.597,0.335,0.827,0.503c1.765,0.671,4.108,1.678,5.29,5.367l0.471,1.003l-0.356,1.341
		c-1.403,4.53-1.998,9.223-2.47,14.255c0.592-2.179,1.536-4.362,3.298-5.867c1.055-3.858,2.938-6.711,4.937-9.057
		c1.058-1.509,2.116-2.853,2.936-4.362l0.471-0.836l0.59-0.336c1.176-0.336,2.232-0.838,3.405-1.341
		c2.236-1.173,4.586-2.518,7.406-2.686h0.471l0.586,0.505c1.293,1.003,2.825,1.672,4.353,2.348c2.816,1.173,6.226,2.854,8.581,7.213
		l0.348,0.671l0.117,0.672c1.531,14.926,2.002,26.832,1.407,38.066c-0.698,14.258-3.166,26.166-7.285,36.902l-0.473,1.338
		l-2.23,0.84c-0.822,0.17-1.765,0.17-2.469,0.17h-0.118c-2.35-0.17-3.172-2.35-3.763-3.861c-0.119-0.165-0.351-0.5-0.466-0.671
		c0,0-0.941-1.503-2.003-1.674c-0.118-0.835,0.119-2.009,0.119-2.009c0.589-2.854,1.061-5.535,1.531-8.051
		c2.234-12.58,4.468-24.152,3.878-36.734c-0.238-3.52-1.295-7.207-2.352-10.901c-0.589-1.341-1.412-3.019-2.587-3.69
		c-1.532,0-3.061,1.176-4.232,3.021c-1.408,2.349-2.584,5.031-3.878,8.051c-0.821,2.35-1.996,5.196-3.524,8.049
		c-2.587,4.357-4.584,9.894-6.936,14.762c-0.235,0.672-0.471,1.344-0.817,1.844l-0.471,1.008l-0.707,0.165
		c-0.121,0.171-0.234,0.171-0.234,0.171c-1.998,4.521-3.052,9.389-4.229,14.588c-1.06,5.701-2.473,11.738-5.057,16.938l-0.237,0.506
		l-0.347,0.336c-1.061,1.167-2.241,1.839-3.646,1.839C621.162,165.542,619.516,164.204,617.99,162.189z"/>
	<path fill="#693A93" stroke="#000000" stroke-width="0.5" stroke-miterlimit="10" d="M708.982,134.346l-1.063-0.172l-0.59-1.342
		c0,0-0.586-1.168-1.526-1.168c-0.352-1.006,0-3.025,0-3.025c0.238-1.168-0.119-2.52-0.702-4.188l-0.239-0.843v-0.837
		c0-12.745,5.175-24.654,13.167-31.192c0.702-0.67,1.294-1.342,2.001-2.014c1.879-2.347,3.995-4.361,6.583-5.7
		c0.119,0,0.234-0.168,0.347-0.336c1.771-2.18,4.001-4.863,6.472-6.035c3.286-4.362,6.227-11.743,5.753-16.944
		c-0.112-2.515-0.937-4.357-2.701-5.699l-0.822-0.669l-0.466-1.34c-0.352,0-0.704,0-1.057,0c-1.175,0-1.531,0.5-1.765,0.668
		l-0.824,1.509l-1.291-0.335c-1.053-0.335-2.117-0.501-2.939-0.501c-7.05,0-13.87,5.703-16.812,13.751l-1.878,5.031l-1.532,2.349
		l-1.645,0.337l-1.058,0.839h-1.883l-0.586-0.839c-0.353-0.337-0.707-0.67-1.055-1.174c-0.94-1.003-1.884-2.181-2.594-3.686
		c-0.584-1.008-0.938-1.848-1.052-2.856c-0.583-0.505-0.941-1.17-1.055-1.674c0,0-0.471-0.839-0.471-1.344
		c0-0.5,0.231-1.504,0.231-1.504c1.764-6.207,3.997-11.574,7.049-16.271c3.178-5.03,7.288-8.552,11.52-10.062l0.121-0.167h0.118
		c0.817-0.167,1.526-0.167,2.23-0.167c0.117,0,0.355,0,0.471,0c0.237,0,0.356,0,0.586,0c1.06,0,1.883,0,2.592-0.336
		c0,0,1.051-0.504,1.288-2.35c0.586-0.335,1.651,0.168,1.651,0.168c0.232,0.168,0.465,0.168,0.697,0.168
		c0.472,0,0.941,0,1.532-0.168c0.472-0.168,0.941-0.168,1.408-0.336c1.645-0.501,2.701-0.838,3.643-0.838l1.177-0.335
		c0,0,1.646-0.336,2.467,0.335c0.353,0.168,0.705,1.342,0.705,1.342c5.409,0.505,10.459,4.527,13.993,11.24
		c3.64,7.377,4.813,16.438,2.935,24.321l-0.704,3.018l-0.826,1.507c0,0.335-0.347,7.048-1.999,10.572
		c-4.698,9.894-12.218,16.774-19.51,22.135l-0.585,0.335h-0.592c-0.112,0-0.231,0-0.231,0c-2.35,0-4.938,2.013-6.469,4.866
		c-1.528,2.85-2.112,5.867-1.646,8.551l0.589,2.855l-0.589,0.336c0.237,1.668,0.355,3.521-0.468,5.863l-0.471,1.18l-0.938,0.332
		c-0.591,0.33-0.822,0.5-0.941,0.666l-0.352,0.672l-2.588,1.343l-0.823-0.506c0,0,0,0-0.114,0c-0.236,0-0.707,0.17-1.055,0.335
		c-0.593,0.171-1.294,0.336-2.004,0.336C709.447,134.346,709.213,134.346,708.982,134.346z M698.872,153.969v-0.336v-0.336
		c0.349-8.215,5.521-13.75,10.109-15.6l0.23-0.166h0.348c1.888,0,3.646,1.172,4.94,3.188c2.353,3.857,2.353,10.06,2.231,12.414
		l-0.115,1.838l-0.702,0.842c0,0-0.124,0.335-0.124,0.501c-0.349,1.002-1.051,3.024-2.815,3.522c0,0,0,0.174,0,0.336
		c0,0-0.118,1.508-0.589,2.184c-0.232,0.331-1.409,0.667-1.409,0.667c-0.583,0.174-1.406,0.174-2.23,0.174
		C703.217,163.197,699.337,159.674,698.872,153.969z"/>
</g>
</svg>
